<?xml version="1.0" encoding="UTF-8"?>
<!DOCTYPE svg PUBLIC "-//W3C//DTD SVG 1.1//EN" "http://www.w3.org/Graphics/SVG/1.1/DTD/svg11.dtd">
<svg xmlns="http://www.w3.org/2000/svg" version="1.1" width="2000px" height="1500px" style="shape-rendering:geometricPrecision; text-rendering:geometricPrecision; image-rendering:optimizeQuality; fill-rule:evenodd; clip-rule:evenodd" xmlns:xlink="http://www.w3.org/1999/xlink">
<g><path style="opacity:0.1" fill="#f6f6fa" d="M 944.5,245.5 C 981.502,245.333 1018.5,245.5 1055.5,246C 1058.45,246.806 1061.11,248.139 1063.5,250C 1071.83,250.333 1080.17,250.667 1088.5,251C 1089.83,251.667 1091.17,252.333 1092.5,253C 1104.03,254.519 1115.36,256.519 1126.5,259C 1129.69,259.449 1132.35,260.782 1134.5,263C 1140.97,262.412 1146.63,264.079 1151.5,268C 1155.92,268.208 1160.25,268.874 1164.5,270C 1165.34,271.011 1165.67,272.178 1165.5,273.5C 1169.18,273.335 1172.85,273.501 1176.5,274C 1177.34,275.011 1177.67,276.178 1177.5,277.5C 1181.57,277.701 1185.57,278.368 1189.5,279.5C 1189.83,280.167 1190.17,280.833 1190.5,281.5C 1193.5,282.333 1196.5,283.167 1199.5,284C 1200.83,284.667 1201.83,285.667 1202.5,287C 1208.68,288.616 1214.68,290.616 1220.5,293C 1221.17,294 1221.83,295 1222.5,296C 1230.06,299.611 1237.72,302.945 1245.5,306C 1248.51,309.772 1252.51,311.772 1257.5,312C 1258.34,313.011 1258.67,314.178 1258.5,315.5C 1262.83,314.685 1265.17,316.352 1265.5,320.5C 1267.5,320.5 1269.5,320.5 1271.5,320.5C 1271.56,322.592 1272.56,324.092 1274.5,325C 1279.39,326.894 1284.06,329.228 1288.5,332C 1293.79,337.225 1299.79,341.558 1306.5,345C 1315.42,352.574 1324.42,360.24 1333.5,368C 1334.38,369.356 1334.71,370.856 1334.5,372.5C 1338.48,371.578 1340.82,373.078 1341.5,377C 1344.81,376.771 1346.64,378.271 1347,381.5C 1348.07,382.191 1349.23,382.691 1350.5,383C 1351.97,386.305 1354.31,388.805 1357.5,390.5C 1358.45,392.045 1358.79,393.712 1358.5,395.5C 1362.16,394.637 1364.33,395.97 1365,399.5C 1372.82,405.315 1379.32,412.315 1384.5,420.5C 1386.19,422.027 1388.03,423.36 1390,424.5C 1390.11,428.376 1391.95,431.042 1395.5,432.5C 1396.45,434.045 1396.79,435.712 1396.5,437.5C 1401,438.11 1403.5,440.777 1404,445.5C 1405.11,447.037 1406.61,447.703 1408.5,447.5C 1408.42,452.34 1410.58,455.673 1415,457.5C 1414.99,461.826 1416.99,464.826 1421,466.5C 1420.83,471.008 1422.83,474.008 1427,475.5C 1426.9,479.742 1428.74,482.742 1432.5,484.5C 1432.72,489.01 1434.72,492.344 1438.5,494.5C 1439.52,497.441 1440.36,500.441 1441,503.5C 1445.08,505.984 1447.41,509.65 1448,514.5C 1452.09,517.819 1453.92,522.152 1453.5,527.5C 1454.82,527.33 1455.99,527.663 1457,528.5C 1458.74,531.957 1459.74,535.623 1460,539.5C 1461.51,540.257 1462.85,541.257 1464,542.5C 1464.99,546.442 1465.66,550.442 1466,554.5C 1468.6,555.68 1470.26,557.68 1471,560.5C 1471.29,566.225 1473.29,571.225 1477,575.5C 1477.94,579.114 1478.61,582.781 1479,586.5C 1481.15,587.977 1482.48,589.977 1483,592.5C 1483.99,596.442 1484.66,600.442 1485,604.5C 1486.71,605.878 1488.05,607.545 1489,609.5C 1490,616.467 1490.66,623.467 1491,630.5C 1495.72,637.753 1497.72,645.753 1497,654.5C 1500.05,659.71 1501.72,665.377 1502,671.5C 1502.33,682.5 1502.67,693.5 1503,704.5C 1508.95,729.643 1509.95,754.976 1506,780.5C 1505.4,783.637 1504.4,786.637 1503,789.5C 1502.67,801.167 1502.33,812.833 1502,824.5C 1501.32,829.553 1499.65,834.22 1497,838.5C 1496.67,845.833 1496.33,853.167 1496,860.5C 1495.66,864.542 1493.99,867.875 1491,870.5C 1490.72,876.216 1490.05,881.883 1489,887.5C 1488.44,890.29 1487.11,892.623 1485,894.5C 1485.58,901.746 1483.58,908.079 1479,913.5C 1478.89,920.489 1476.72,926.656 1472.5,932C 1471.92,935.564 1471.09,939.064 1470,942.5C 1468.85,943.743 1467.51,944.743 1466,945.5C 1466.53,951.588 1464.53,956.588 1460,960.5C 1459.7,963.914 1459.04,967.247 1458,970.5C 1453.96,972.891 1451.96,976.558 1452,981.5C 1448.17,984.966 1445.84,989.3 1445,994.5C 1443.67,995.167 1442.33,995.833 1441,996.5C 1440.63,998.698 1440.13,1000.86 1439.5,1003C 1437.79,1004.61 1435.96,1006.11 1434,1007.5C 1433.9,1011.11 1432.73,1014.27 1430.5,1017C 1429.55,1017.48 1428.55,1017.65 1427.5,1017.5C 1428.46,1022.37 1426.63,1025.71 1422,1027.5C 1422.01,1031.83 1420.01,1034.83 1416,1036.5C 1416.01,1040.83 1414.01,1043.83 1410,1045.5C 1409.67,1047.17 1409.33,1048.83 1409,1050.5C 1407.33,1051.17 1405.67,1051.83 1404,1052.5C 1403.8,1057.63 1401.3,1060.63 1396.5,1061.5C 1396.5,1065.35 1394.66,1068.02 1391,1069.5C 1391.2,1074.11 1389.03,1076.11 1384.5,1075.5C 1384.64,1079.56 1382.97,1082.56 1379.5,1084.5C 1378.73,1088.34 1376.4,1090.01 1372.5,1089.5C 1371.37,1093.8 1368.87,1097.14 1365,1099.5C 1364.51,1100.79 1364.34,1102.13 1364.5,1103.5C 1362.5,1103.5 1360.5,1103.5 1358.5,1103.5C 1358.5,1105.17 1358.5,1106.83 1358.5,1108.5C 1354.54,1107.89 1352.38,1109.56 1352,1113.5C 1350.58,1115.42 1348.75,1116.76 1346.5,1117.5C 1345.75,1118.74 1345.42,1120.07 1345.5,1121.5C 1343.83,1121.5 1342.17,1121.5 1340.5,1121.5C 1340.94,1125.91 1338.94,1127.57 1334.5,1126.5C 1334.94,1130.91 1332.94,1132.57 1328.5,1131.5C 1328.39,1135.25 1326.39,1137.25 1322.5,1137.5C 1321.57,1138.69 1321.24,1140.02 1321.5,1141.5C 1317.84,1141 1315.5,1142.5 1314.5,1146C 1311.1,1145.73 1309.43,1147.23 1309.5,1150.5C 1306.01,1150.15 1303.68,1151.65 1302.5,1155C 1297,1158.92 1291.34,1162.58 1285.5,1166C 1283.81,1169.08 1281.14,1170.58 1277.5,1170.5C 1277.5,1171.5 1277.5,1172.5 1277.5,1173.5C 1275.5,1173.5 1273.5,1173.5 1271.5,1173.5C 1271.5,1175.17 1271.5,1176.83 1271.5,1178.5C 1269.5,1178.5 1267.5,1178.5 1265.5,1178.5C 1265.08,1182.56 1262.75,1184.56 1258.5,1184.5C 1253.9,1186.81 1249.56,1189.64 1245.5,1193C 1243.87,1193.49 1242.2,1193.66 1240.5,1193.5C 1239.92,1196.64 1237.92,1198.14 1234.5,1198C 1233.83,1199 1233.17,1200 1232.5,1201C 1229.81,1201.39 1227.15,1201.89 1224.5,1202.5C 1222.83,1202.83 1221.83,1203.83 1221.5,1205.5C 1217.84,1205.89 1214.84,1207.39 1212.5,1210C 1209.27,1211.2 1205.94,1211.7 1202.5,1211.5C 1202.67,1212.82 1202.34,1213.99 1201.5,1215C 1197.91,1216.11 1194.25,1216.61 1190.5,1216.5C 1190.67,1217.82 1190.34,1218.99 1189.5,1220C 1185.78,1220.39 1182.11,1221.06 1178.5,1222C 1177.83,1223 1177.17,1224 1176.5,1225C 1172.85,1225.5 1169.18,1225.67 1165.5,1225.5C 1165.78,1228.39 1164.45,1229.89 1161.5,1230C 1158.5,1230.33 1155.5,1230.67 1152.5,1231C 1150.75,1233.26 1148.42,1234.59 1145.5,1235C 1140.32,1234.75 1135.65,1236.08 1131.5,1239C 1125.91,1239.6 1120.58,1240.93 1115.5,1243C 1107.79,1243.39 1100.46,1245.06 1093.5,1248C 1086.17,1248.33 1078.83,1248.67 1071.5,1249C 1068.06,1251.79 1064.06,1253.12 1059.5,1253C 1044.5,1253.33 1029.5,1253.67 1014.5,1254C 1007.85,1255.87 1001.18,1255.87 994.5,1254C 977.167,1253.67 959.833,1253.33 942.5,1253C 938.093,1252.79 934.093,1251.46 930.5,1249C 922.833,1248.67 915.167,1248.33 907.5,1248C 898.523,1245.48 889.523,1243.15 880.5,1241C 873.389,1240.82 866.722,1239.15 860.5,1236C 856.469,1235.52 852.469,1234.85 848.5,1234C 847.167,1233.33 846.167,1232.33 845.5,1231C 839.394,1231.54 834.061,1229.87 829.5,1226C 824.264,1225.86 819.597,1224.19 815.5,1221C 809.487,1220.1 803.82,1218.44 798.5,1216C 796.893,1214.95 796.227,1213.45 796.5,1211.5C 792.727,1211.74 789.06,1211.24 785.5,1210C 784.663,1208.99 784.33,1207.82 784.5,1206.5C 780.404,1207.28 777.07,1206.12 774.5,1203C 771.899,1202.08 769.232,1201.41 766.5,1201C 765.833,1200 765.167,1199 764.5,1198C 756.786,1194.25 749.119,1190.58 741.5,1187C 740.663,1185.99 740.33,1184.82 740.5,1183.5C 736.542,1184.43 733.875,1183.09 732.5,1179.5C 727.231,1177.53 722.231,1175.03 717.5,1172C 708.991,1166.18 700.657,1160.18 692.5,1154C 691.257,1152.85 690.257,1151.51 689.5,1150C 688.167,1149.67 686.833,1149.33 685.5,1149C 676.518,1140.36 667.185,1132.02 657.5,1124C 654.415,1123.3 652.415,1121.47 651.5,1118.5C 648.435,1117.6 646.602,1115.6 646,1112.5C 642.418,1108.67 638.418,1105.34 634,1102.5C 633.529,1099.41 631.696,1097.74 628.5,1097.5C 627.833,1094.83 626.167,1093.17 623.5,1092.5C 621.991,1090.34 620.991,1088.01 620.5,1085.5C 619.07,1085.58 617.736,1085.25 616.5,1084.5C 613.299,1080.46 610.466,1076.13 608,1071.5C 604.025,1069.93 601.691,1066.93 601,1062.5C 599.667,1061.83 598.333,1061.17 597,1060.5C 595.756,1056.81 593.589,1053.81 590.5,1051.5C 589.548,1049.95 589.215,1048.29 589.5,1046.5C 585.249,1045.72 583.083,1043.06 583,1038.5C 578.666,1036.75 576.833,1033.41 577.5,1028.5C 575.516,1028.62 573.85,1027.95 572.5,1026.5C 571.94,1024.15 571.273,1021.81 570.5,1019.5C 566.137,1017.7 564.304,1014.36 565,1009.5C 560.189,1006.55 558.023,1002.21 558.5,996.5C 556.516,996.617 554.85,995.95 553.5,994.5C 552.679,992.217 552.012,989.884 551.5,987.5C 547.303,983.436 544.969,978.436 544.5,972.5C 543.252,971.96 542.085,971.293 541,970.5C 540.058,966.532 539.225,962.532 538.5,958.5C 535.763,957.931 534.263,956.264 534,953.5C 533.502,950.518 533.335,947.518 533.5,944.5C 531.286,944.709 529.619,943.876 528.5,942C 527.614,937.849 526.78,933.682 526,929.5C 521.658,925.152 519.658,919.819 520,913.5C 518.43,912.386 517.097,911.053 516,909.5C 514.968,903.549 514.135,897.549 513.5,891.5C 511.412,889.572 509.912,887.239 509,884.5C 508.829,879.467 508.329,874.467 507.5,869.5C 505.282,868.076 503.782,866.076 503,863.5C 502.667,854.833 502.333,846.167 502,837.5C 499.597,835.695 497.93,833.362 497,830.5C 496.667,817.5 496.333,804.5 496,791.5C 493.184,788.397 491.517,784.73 491,780.5C 490.333,761.167 490.333,741.833 491,722.5C 491.517,718.27 493.184,714.603 496,711.5C 496.333,697.167 496.667,682.833 497,668.5C 497.506,665.329 499.172,662.996 502,661.5C 502.333,653.167 502.667,644.833 503,636.5C 503.93,633.638 505.597,631.305 508,629.5C 508.333,624.167 508.667,618.833 509,613.5C 509.505,610.483 511.005,608.149 513.5,606.5C 514.328,602.204 514.828,597.871 515,593.5C 515.736,590.68 517.402,588.68 520,587.5C 520.303,583.106 520.97,578.773 522,574.5C 522.953,572.545 524.287,570.878 526,569.5C 526.297,566.086 526.964,562.753 528,559.5C 529,557.167 530.667,555.5 533,554.5C 533.231,550.416 533.898,546.416 535,542.5C 536.085,541.707 537.252,541.04 538.5,540.5C 539.067,536.361 540.067,532.361 541.5,528.5C 542.628,527.738 543.795,527.071 545,526.5C 544.352,521.129 546.352,517.129 551,514.5C 551.305,509.184 553.639,505.184 558,502.5C 558.567,499.832 559.067,497.166 559.5,494.5C 561.582,494.528 563.416,493.861 565,492.5C 565.022,488.561 566.189,485.061 568.5,482C 569.448,481.517 570.448,481.351 571.5,481.5C 570.063,475.881 572.063,472.548 577.5,471.5C 576.539,466.628 578.372,463.295 583,461.5C 583.333,459.833 583.667,458.167 584,456.5C 587.862,455.234 589.862,452.567 590,448.5C 591.699,447.594 593.533,447.261 595.5,447.5C 594.813,441.992 596.98,438.325 602,436.5C 602.31,432.359 604.477,430.025 608.5,429.5C 607.483,425.219 609.15,422.886 613.5,422.5C 614.485,420.228 615.319,417.895 616,415.5C 617.356,414.62 618.856,414.286 620.5,414.5C 620.062,410.092 622.062,408.425 626.5,409.5C 626.851,404.803 629.185,401.469 633.5,399.5C 634.246,398.264 634.579,396.93 634.5,395.5C 636.5,395.5 638.5,395.5 640.5,395.5C 639.881,390.794 641.881,388.127 646.5,387.5C 646.194,383.303 648.194,381.303 652.5,381.5C 652.529,378.344 654.196,376.678 657.5,376.5C 658.429,375.311 658.762,373.978 658.5,372.5C 660.5,372.5 662.5,372.5 664.5,372.5C 664.5,370.833 664.5,369.167 664.5,367.5C 665.873,367.657 667.207,367.49 668.5,367C 673.092,362.039 678.092,357.539 683.5,353.5C 684.216,350.316 686.216,348.816 689.5,349C 690.257,347.488 691.257,346.154 692.5,345C 695.646,342.741 698.979,340.741 702.5,339C 703.499,336.239 705.499,334.906 708.5,335C 713.655,330.091 719.655,326.757 726.5,325C 727.38,323.644 727.714,322.144 727.5,320.5C 729.5,320.5 731.5,320.5 733.5,320.5C 733.286,318.856 733.62,317.356 734.5,316C 736.473,315.505 738.473,315.338 740.5,315.5C 740.33,314.178 740.663,313.011 741.5,312C 745.971,310.843 749.971,308.843 753.5,306C 755.134,305.506 756.801,305.34 758.5,305.5C 758.281,304.325 758.614,303.325 759.5,302.5C 764.073,299.723 769.073,297.723 774.5,296.5C 776.147,295.722 777.48,294.556 778.5,293C 781.904,292.986 784.57,291.653 786.5,289C 789.726,287.801 793.059,287.301 796.5,287.5C 796.137,285.089 797.137,283.589 799.5,283C 802.482,282.502 805.482,282.335 808.5,282.5C 808.33,281.178 808.663,280.011 809.5,279C 813.491,278.358 817.491,277.858 821.5,277.5C 821.33,276.178 821.663,275.011 822.5,274C 826.152,273.501 829.818,273.335 833.5,273.5C 833.137,271.089 834.137,269.589 836.5,269C 840.211,268.825 843.878,268.325 847.5,267.5C 849.153,265.879 851.153,264.712 853.5,264C 857.167,263.667 860.833,263.333 864.5,263C 865.167,261.667 866.167,260.667 867.5,260C 880.45,256.655 893.783,254.322 907.5,253C 908.328,252.085 909.328,251.419 910.5,251C 918.833,250.667 927.167,250.333 935.5,250C 938.324,247.921 941.324,246.421 944.5,245.5 Z"/></g>
<g><path style="opacity:0.467" fill="#7175b7" d="M 968.5,250.5 C 957.402,252.541 946.069,253.541 934.5,253.5C 945.638,251.932 956.972,250.932 968.5,250.5 Z"/></g>
<g><path style="opacity:0.96" fill="#101483" d="M 1038.5,250.5 C 1047.13,252.447 1056.13,253.78 1065.5,254.5C 1068.83,254.833 1072.17,255.167 1075.5,255.5C 1075.92,256.222 1076.58,256.722 1077.5,257C 1082.5,257.611 1087.5,258.111 1092.5,258.5C 1096.42,259.442 1100.42,260.108 1104.5,260.5C 1108.69,263.09 1113.36,264.09 1118.5,263.5C 1137.3,268.871 1155.97,274.871 1174.5,281.5C 1177.05,283.584 1180.05,284.917 1183.5,285.5C 1189.97,288.631 1196.64,291.297 1203.5,293.5C 1205.18,295.008 1207.18,296.008 1209.5,296.5C 1221.15,301.657 1232.48,307.324 1243.5,313.5C 1245.57,315.199 1247.9,316.532 1250.5,317.5C 1259.57,323.546 1268.9,329.379 1278.5,335C 1287.56,341.519 1296.56,348.019 1305.5,354.5C 1306.58,356.587 1308.25,357.92 1310.5,358.5C 1348.98,389.432 1382.48,425.098 1411,465.5C 1437.04,503.918 1457.54,545.251 1472.5,589.5C 1472.68,593.708 1474.01,597.374 1476.5,600.5C 1478.85,609.854 1481.18,619.187 1483.5,628.5C 1484.42,634.333 1485.42,640.166 1486.5,646C 1486.61,647.681 1487.27,648.848 1488.5,649.5C 1491.06,658.963 1492.72,668.63 1493.5,678.5C 1493.72,682.705 1494.38,686.705 1495.5,690.5C 1495.5,691.833 1495.5,693.167 1495.5,694.5C 1495.32,700.404 1495.99,706.071 1497.5,711.5C 1498.07,719.154 1498.4,726.821 1498.5,734.5C 1498.75,749.858 1498.42,765.191 1497.5,780.5C 1497.5,782.833 1497.5,785.167 1497.5,787.5C 1495.88,794.281 1494.88,801.281 1494.5,808.5C 1494.08,813.493 1493.75,818.493 1493.5,823.5C 1492.75,829.204 1491.75,834.871 1490.5,840.5C 1488.86,845.248 1487.86,850.248 1487.5,855.5C 1486.62,858.761 1485.96,862.094 1485.5,865.5C 1483.93,867.102 1483.26,869.102 1483.5,871.5C 1482.66,875.211 1481.66,878.877 1480.5,882.5C 1478.88,885.171 1478.22,888.171 1478.5,891.5C 1477.21,893.979 1476.21,896.646 1475.5,899.5C 1473.72,902.505 1472.72,905.838 1472.5,909.5C 1471.01,916.14 1468.68,922.473 1465.5,928.5C 1463.6,931.518 1462.27,934.851 1461.5,938.5C 1451.9,961.129 1441.07,983.129 1429,1004.5C 1418.4,1020.7 1407.57,1036.7 1396.5,1052.5C 1394.18,1053.8 1392.84,1055.8 1392.5,1058.5C 1379.9,1072.78 1367.23,1087.11 1354.5,1101.5C 1352.25,1102.08 1350.58,1103.41 1349.5,1105.5C 1347.19,1107.14 1345.19,1109.14 1343.5,1111.5C 1341.09,1112.52 1339.42,1114.18 1338.5,1116.5C 1323.1,1130.23 1307.1,1143.23 1290.5,1155.5C 1286.65,1157.92 1282.98,1160.59 1279.5,1163.5C 1268.93,1169.61 1258.6,1175.94 1248.5,1182.5C 1246.33,1182.75 1244.66,1183.75 1243.5,1185.5C 1235.95,1189.78 1228.28,1193.78 1220.5,1197.5C 1217.28,1197.9 1214.61,1199.23 1212.5,1201.5C 1207.57,1202.97 1202.9,1204.97 1198.5,1207.5C 1194.57,1208.13 1191.24,1209.8 1188.5,1212.5C 1187.21,1212.26 1186.21,1212.6 1185.5,1213.5C 1181.53,1213.49 1178.19,1214.82 1175.5,1217.5C 1168.91,1218.73 1162.58,1220.73 1156.5,1223.5C 1152.46,1224.07 1148.8,1225.4 1145.5,1227.5C 1143.3,1227.6 1141.3,1228.27 1139.5,1229.5C 1137.15,1229.67 1134.82,1230 1132.5,1230.5C 1130.97,1230.64 1129.97,1231.31 1129.5,1232.5C 1126.27,1232.68 1123.27,1233.34 1120.5,1234.5C 1116.84,1234.95 1113.17,1235.45 1109.5,1236C 1108.58,1236.28 1107.92,1236.78 1107.5,1237.5C 1093.64,1240.58 1079.64,1242.91 1065.5,1244.5C 1058.01,1245.35 1050.68,1246.35 1043.5,1247.5C 1018.19,1249.62 992.858,1249.95 967.5,1248.5C 958.712,1246.86 949.712,1245.86 940.5,1245.5C 934.158,1244.9 927.824,1244.23 921.5,1243.5C 917.117,1241.77 912.45,1240.77 907.5,1240.5C 901.187,1239.37 894.854,1238.37 888.5,1237.5C 884.047,1235.8 879.38,1234.47 874.5,1233.5C 873.041,1233.57 871.708,1233.23 870.5,1232.5C 867.417,1230.98 864.084,1229.98 860.5,1229.5C 857.5,1228.83 854.5,1228.17 851.5,1227.5C 849.967,1225.75 847.967,1224.75 845.5,1224.5C 769.99,1200.96 704.324,1161.3 648.5,1105.5C 643.5,1099.83 638.167,1094.5 632.5,1089.5C 629.391,1085.6 626.057,1081.94 622.5,1078.5C 621.92,1076.25 620.587,1074.58 618.5,1073.5C 595.5,1046.15 575.5,1016.82 558.5,985.5C 556.147,980.795 553.814,976.128 551.5,971.5C 550.839,968.213 550.339,964.88 550,961.5C 548.846,960.257 547.512,959.257 546,958.5C 545.226,954.853 544.559,951.186 544,947.5C 542.871,945.859 541.371,944.859 539.5,944.5C 535.191,935.861 531.357,926.861 528,917.5C 523.802,904.004 519.636,890.671 515.5,877.5C 516.035,872.688 515.035,868.355 512.5,864.5C 512.198,861.627 511.531,858.961 510.5,856.5C 510.376,851.951 509.709,847.618 508.5,843.5C 506.853,837.306 505.853,830.972 505.5,824.5C 504.078,812.532 502.911,800.532 502,788.5C 501.617,787.944 501.117,787.611 500.5,787.5C 499.631,765.179 499.298,742.846 499.5,720.5C 500.616,713.354 501.283,706.02 501.5,698.5C 502.939,687.592 504.606,676.592 506.5,665.5C 513.681,624.107 525.514,584.107 542,545.5C 542.852,544.429 543.685,543.429 544.5,542.5C 546.592,539.912 547.925,536.912 548.5,533.5C 549.992,529.182 551.992,525.182 554.5,521.5C 556.757,518.52 558.423,515.187 559.5,511.5C 565.507,500.347 571.674,489.347 578,478.5C 584.277,469.586 590.777,460.92 597.5,452.5C 599.547,450.45 601.214,448.117 602.5,445.5C 605.79,439.913 609.79,434.913 614.5,430.5C 618.3,428.037 620.967,424.704 622.5,420.5C 649.33,389.676 679.663,362.676 713.5,339.5C 715.853,338.66 717.853,337.326 719.5,335.5C 737.184,322.813 755.851,311.813 775.5,302.5C 778.157,302.065 780.491,301.065 782.5,299.5C 789.262,295.123 796.595,291.789 804.5,289.5C 806.967,289.245 808.967,288.245 810.5,286.5C 811.167,286.167 811.833,285.833 812.5,285.5C 815.346,285.448 817.68,284.448 819.5,282.5C 821.921,282.122 824.254,281.455 826.5,280.5C 829.257,279.488 831.924,278.488 834.5,277.5C 842.076,273.937 850.076,271.603 858.5,270.5C 861.486,270.097 864.152,269.097 866.5,267.5C 878.611,264.286 890.945,261.62 903.5,259.5C 909.809,259.01 915.809,257.677 921.5,255.5C 926.049,255.376 930.382,254.709 934.5,253.5C 946.069,253.541 957.402,252.541 968.5,250.5C 991.826,249.294 1015.16,249.294 1038.5,250.5 Z"/></g>
<g><path style="opacity:0.376" fill="#a8aad3" d="M 1038.5,250.5 C 1044.86,250.603 1051.19,251.103 1057.5,252C 1060.52,252.098 1063.19,252.932 1065.5,254.5C 1056.13,253.78 1047.13,252.447 1038.5,250.5 Z"/></g>
<g><path style="opacity:0.525" fill="#6f71b5" d="M 921.5,255.5 C 915.809,257.677 909.809,259.01 903.5,259.5C 903.791,258.351 904.624,257.684 906,257.5C 911.147,256.627 916.314,255.961 921.5,255.5 Z"/></g>
<g><path style="opacity:0.624" fill="#7679b9" d="M 1075.5,255.5 C 1081.39,255.939 1087.06,256.939 1092.5,258.5C 1087.5,258.111 1082.5,257.611 1077.5,257C 1076.58,256.722 1075.92,256.222 1075.5,255.5 Z"/></g>
<g><path style="opacity:0.999" fill="#f5f5fa" d="M 1097.5,270.5 C 1098.68,272.067 1100.35,272.901 1102.5,273C 1107.83,273.943 1113.16,274.777 1118.5,275.5C 1126.16,277.499 1133.83,279.499 1141.5,281.5C 1145.08,283.806 1149.08,285.139 1153.5,285.5C 1187.04,296.941 1219.04,311.608 1249.5,329.5C 1251.12,331.942 1253.45,333.275 1256.5,333.5C 1304.36,363.679 1346.02,401.012 1381.5,445.5C 1382.08,447.749 1383.41,449.415 1385.5,450.5C 1404.94,475.036 1421.61,501.37 1435.5,529.5C 1435.75,531.967 1436.75,533.967 1438.5,535.5C 1439.17,536.833 1439.83,538.167 1440.5,539.5C 1441.08,542.947 1442.42,545.947 1444.5,548.5C 1445.34,548.842 1445.67,549.508 1445.5,550.5C 1445.9,553.721 1447.23,556.388 1449.5,558.5C 1453.89,569.344 1457.89,580.344 1461.5,591.5C 1462.13,594.397 1463.13,597.064 1464.5,599.5C 1465.32,601.772 1465.99,604.106 1466.5,606.5C 1466.67,611.931 1468.01,616.931 1470.5,621.5C 1473.43,630.572 1475.77,639.905 1477.5,649.5C 1477.41,652.152 1478.08,654.485 1479.5,656.5C 1503.5,796.933 1474.33,924.933 1392,1040.5C 1292.14,1169.51 1159.98,1235.51 995.5,1238.5C 981.472,1238.28 967.472,1237.61 953.5,1236.5C 946.633,1235.44 939.633,1234.44 932.5,1233.5C 931.167,1233.5 929.833,1233.5 928.5,1233.5C 928.03,1232.31 927.03,1231.64 925.5,1231.5C 921.535,1230.73 917.535,1230.39 913.5,1230.5C 882.446,1224.82 852.113,1216.49 822.5,1205.5C 820.491,1203.93 818.157,1202.93 815.5,1202.5C 689.945,1149.11 600.112,1059.78 546,934.5C 531.927,897.875 521.761,860.208 515.5,821.5C 515.638,816.586 514.972,811.919 513.5,807.5C 509.561,769.137 509.561,730.804 513.5,692.5C 515.104,688.1 515.771,683.434 515.5,678.5C 537.778,541.699 604.445,432.532 715.5,351C 727.05,343.277 738.717,335.777 750.5,328.5C 753.621,328.264 755.954,326.931 757.5,324.5C 771.636,316.099 786.302,308.766 801.5,302.5C 804.721,302.104 807.388,300.771 809.5,298.5C 816.367,295.997 823.034,293.33 829.5,290.5C 832.01,290.946 834.01,290.28 835.5,288.5C 845.106,285.298 854.773,282.298 864.5,279.5C 868.884,278.99 873.218,278.157 877.5,277C 878.056,276.617 878.389,276.117 878.5,275.5C 886.364,273.327 894.364,271.66 902.5,270.5C 905.152,270.59 907.485,269.924 909.5,268.5C 917.126,267.22 924.793,266.22 932.5,265.5C 937.305,264.94 941.971,264.273 946.5,263.5C 997.177,258.32 1047.51,260.653 1097.5,270.5 Z"/></g>
<g><path style="opacity:0.565" fill="#b3b5d9" d="M 1104.5,260.5 C 1109.45,260.77 1114.12,261.77 1118.5,263.5C 1113.36,264.09 1108.69,263.09 1104.5,260.5 Z"/></g>
<g><path style="opacity:1" fill="#5658a8" d="M 946.5,263.5 C 941.971,264.273 937.305,264.94 932.5,265.5C 932.611,264.883 932.944,264.383 933.5,264C 937.821,263.501 942.154,263.334 946.5,263.5 Z"/></g>
<g><path style="opacity:0.702" fill="#5d60ac" d="M 866.5,267.5 C 864.152,269.097 861.486,270.097 858.5,270.5C 860.617,268.345 863.284,267.345 866.5,267.5 Z"/></g>
<g><path style="opacity:1" fill="#8386c0" d="M 909.5,268.5 C 907.485,269.924 905.152,270.59 902.5,270.5C 904.438,268.837 906.772,268.171 909.5,268.5 Z"/></g>
<g><path style="opacity:1" fill="#010c80" d="M 1052.5,272.5 C 1057.27,273.889 1062.27,274.556 1067.5,274.5C 1073.46,275.497 1079.46,276.497 1085.5,277.5C 1091.92,279.433 1098.59,280.766 1105.5,281.5C 1107.44,282.15 1109.44,282.483 1111.5,282.5C 1113.1,284.074 1115.1,284.741 1117.5,284.5C 1240.42,318.327 1336.59,388.327 1406,494.5C 1411.71,505.847 1417.88,516.847 1424.5,527.5C 1424.75,529.967 1425.75,531.967 1427.5,533.5C 1434.59,547.673 1440.93,562.34 1446.5,577.5C 1446.93,580.157 1447.93,582.491 1449.5,584.5C 1459.96,613.008 1467.63,642.341 1472.5,672.5C 1473.41,678.981 1474.41,685.315 1475.5,691.5C 1489.95,835.964 1449.78,962.631 1355,1071.5C 1248.17,1184.58 1116.67,1236.75 960.5,1228C 802.545,1211.32 680.045,1137.15 593,1005.5C 524.715,892.793 504.048,771.793 531,642.5C 567.09,498.73 650.256,391.896 780.5,322C 821.906,300.587 865.573,286.087 911.5,278.5C 915.841,278.342 919.841,277.342 923.5,275.5C 926.43,274.701 929.43,274.368 932.5,274.5C 937.338,274.089 942.005,273.422 946.5,272.5C 981.814,268.647 1017.15,268.647 1052.5,272.5 Z"/></g>
<g><path style="opacity:1" fill="#979aca" d="M 946.5,272.5 C 942.005,273.422 937.338,274.089 932.5,274.5C 932.611,273.883 932.944,273.383 933.5,273C 937.821,272.501 942.154,272.334 946.5,272.5 Z"/></g>
<g><path style="opacity:1" fill="#989bcb" d="M 1052.5,272.5 C 1057.75,272.302 1062.75,272.969 1067.5,274.5C 1062.27,274.556 1057.27,273.889 1052.5,272.5 Z"/></g>
<g><path style="opacity:1" fill="#8f90c6" d="M 1097.5,270.5 C 1104.76,271.602 1111.76,273.269 1118.5,275.5C 1113.16,274.777 1107.83,273.943 1102.5,273C 1100.35,272.901 1098.68,272.067 1097.5,270.5 Z"/></g>
<g><path style="opacity:1" fill="#46489f" d="M 923.5,275.5 C 919.841,277.342 915.841,278.342 911.5,278.5C 915.159,276.658 919.159,275.658 923.5,275.5 Z"/></g>
<g><path style="opacity:1" fill="#a6a8d2" d="M 1085.5,277.5 C 1092.55,277.602 1099.21,278.935 1105.5,281.5C 1098.59,280.766 1091.92,279.433 1085.5,277.5 Z"/></g>
<g><path style="opacity:0.49" fill="#999ccb" d="M 834.5,277.5 C 831.924,278.488 829.257,279.488 826.5,280.5C 828.416,278.023 831.083,277.023 834.5,277.5 Z"/></g>
<g><path style="opacity:1" fill="#979aca" d="M 878.5,275.5 C 878.389,276.117 878.056,276.617 877.5,277C 873.218,278.157 868.884,278.99 864.5,279.5C 868.953,277.801 873.62,276.467 878.5,275.5 Z"/></g>
<g><path style="opacity:1" fill="#989bcb" d="M 1111.5,282.5 C 1113.9,282.259 1115.9,282.926 1117.5,284.5C 1115.1,284.741 1113.1,284.074 1111.5,282.5 Z"/></g>
<g><path style="opacity:1" fill="#6062ad" d="M 1141.5,281.5 C 1145.92,281.861 1149.92,283.194 1153.5,285.5C 1149.08,285.139 1145.08,283.806 1141.5,281.5 Z"/></g>
<g><path style="opacity:0.702" fill="#5a5dab" d="M 1174.5,281.5 C 1177.95,282.083 1180.95,283.416 1183.5,285.5C 1180.05,284.917 1177.05,283.584 1174.5,281.5 Z"/></g>
<g><path style="opacity:0.49" fill="#9194c7" d="M 819.5,282.5 C 817.68,284.448 815.346,285.448 812.5,285.5C 814.395,283.759 816.728,282.759 819.5,282.5 Z"/></g>
<g><path style="opacity:0.576" fill="#5c5fac" d="M 810.5,286.5 C 808.967,288.245 806.967,289.245 804.5,289.5C 806.033,287.755 808.033,286.755 810.5,286.5 Z"/></g>
<g><path style="opacity:1" fill="#7d7fbd" d="M 835.5,288.5 C 834.01,290.28 832.01,290.946 829.5,290.5C 831.214,289.262 833.214,288.595 835.5,288.5 Z"/></g>
<g><path style="opacity:0.435" fill="#999bcb" d="M 1203.5,293.5 C 1206.39,293.031 1208.39,294.031 1209.5,296.5C 1207.18,296.008 1205.18,295.008 1203.5,293.5 Z"/></g>
<g><path style="opacity:0.702" fill="#7174b7" d="M 782.5,299.5 C 780.491,301.065 778.157,302.065 775.5,302.5C 777.176,300.166 779.509,299.166 782.5,299.5 Z"/></g>
<g><path style="opacity:1" fill="#8588c1" d="M 809.5,298.5 C 807.388,300.771 804.721,302.104 801.5,302.5C 803.612,300.229 806.279,298.896 809.5,298.5 Z"/></g>
<g><path style="opacity:0.553" fill="#989bcb" d="M 1243.5,313.5 C 1246.55,313.725 1248.88,315.058 1250.5,317.5C 1247.9,316.532 1245.57,315.199 1243.5,313.5 Z"/></g>
<g><path style="opacity:1" fill="#9395c8" d="M 757.5,324.5 C 755.954,326.931 753.621,328.264 750.5,328.5C 752.35,326.428 754.683,325.095 757.5,324.5 Z"/></g>
<g><path style="opacity:1" fill="#5b5dab" d="M 1249.5,329.5 C 1252.1,330.468 1254.43,331.801 1256.5,333.5C 1253.45,333.275 1251.12,331.942 1249.5,329.5 Z"/></g>
<g><path style="opacity:0.612" fill="#6b6db3" d="M 719.5,335.5 C 717.853,337.326 715.853,338.66 713.5,339.5C 714.802,337.178 716.802,335.845 719.5,335.5 Z"/></g>
<g><path style="opacity:0.596" fill="#9597c9" d="M 1305.5,354.5 C 1307.75,355.08 1309.42,356.413 1310.5,358.5C 1308.25,357.92 1306.58,356.587 1305.5,354.5 Z"/></g>
<g><path style="opacity:0.604" fill="#5c5dab" d="M 622.5,420.5 C 620.967,424.704 618.3,428.037 614.5,430.5C 616.794,426.873 619.46,423.539 622.5,420.5 Z"/></g>
<g><path style="opacity:1" fill="#9294c7" d="M 1381.5,445.5 C 1383.59,446.585 1384.92,448.251 1385.5,450.5C 1383.41,449.415 1382.08,447.749 1381.5,445.5 Z"/></g>
<g><path style="opacity:0.478" fill="#6d6fb4" d="M 602.5,445.5 C 601.214,448.117 599.547,450.45 597.5,452.5C 598.01,449.326 599.677,446.992 602.5,445.5 Z"/></g>
<g><path style="opacity:0.604" fill="#6666b0" d="M 559.5,511.5 C 558.423,515.187 556.757,518.52 554.5,521.5C 555.044,517.489 556.711,514.156 559.5,511.5 Z"/></g>
<g><path style="opacity:1" fill="#797cbb" d="M 1424.5,527.5 C 1426.25,529.033 1427.25,531.033 1427.5,533.5C 1425.75,531.967 1424.75,529.967 1424.5,527.5 Z"/></g>
<g><path style="opacity:1" fill="#878ac2" d="M 1435.5,529.5 C 1437.25,531.033 1438.25,533.033 1438.5,535.5C 1436.75,533.967 1435.75,531.967 1435.5,529.5 Z"/></g>
<g><path style="opacity:0.714" fill="#6364af" d="M 548.5,533.5 C 547.925,536.912 546.592,539.912 544.5,542.5C 544.502,538.835 545.835,535.835 548.5,533.5 Z"/></g>
<g><path style="opacity:1" fill="#8386c0" d="M 1440.5,539.5 C 1442.58,542.053 1443.92,545.053 1444.5,548.5C 1442.42,545.947 1441.08,542.947 1440.5,539.5 Z"/></g>
<g><path style="opacity:1" fill="#696cb2" d="M 1445.5,550.5 C 1447.77,552.612 1449.1,555.279 1449.5,558.5C 1447.23,556.388 1445.9,553.721 1445.5,550.5 Z"/></g>
<g><path style="opacity:1" fill="#7779ba" d="M 1446.5,577.5 C 1448.83,579.176 1449.83,581.509 1449.5,584.5C 1447.93,582.491 1446.93,580.157 1446.5,577.5 Z"/></g>
<g><path style="opacity:1" fill="#fbfbfd" d="M 1002.5,589.5 C 1002.5,592.5 1002.5,595.5 1002.5,598.5C 1005.17,598.5 1007.83,598.5 1010.5,598.5C 1010.5,600.167 1010.5,601.833 1010.5,603.5C 1007.94,603.198 1005.61,603.532 1003.5,604.5C 1003.5,607.5 1003.5,610.5 1003.5,613.5C 1016.75,618.013 1020.92,627.013 1016,640.5C 1014.17,643.667 1011.67,646.167 1008.5,648C 1019.32,660.488 1030.49,672.654 1042,684.5C 1054.23,677.299 1066.4,669.966 1078.5,662.5C 1072.38,650.035 1075.38,640.535 1087.5,634C 1102.13,631.158 1110.46,636.991 1112.5,651.5C 1111.4,664.933 1104.06,671.266 1090.5,670.5C 1088.04,684.137 1085.71,697.804 1083.5,711.5C 1027.17,711.5 970.833,711.5 914.5,711.5C 912.038,697.855 909.704,684.188 907.5,670.5C 890.907,670.401 883.741,662.068 886,645.5C 892.952,632.872 902.786,630.038 915.5,637C 923.583,644.99 924.583,653.823 918.5,663.5C 928.5,670.5 938.5,677.5 948.5,684.5C 961.984,672.183 975.317,659.683 988.5,647C 981.235,641.204 978.735,633.704 981,624.5C 981.792,621.894 983.292,619.894 985.5,618.5C 988.939,615.804 992.606,613.804 996.5,612.5C 996.5,609.833 996.5,607.167 996.5,604.5C 994.052,603.527 991.385,603.194 988.5,603.5C 988.5,601.5 988.5,599.5 988.5,597.5C 991.385,597.806 994.052,597.473 996.5,596.5C 996.5,593.833 996.5,591.167 996.5,588.5C 998.735,588.205 1000.74,588.539 1002.5,589.5 Z"/></g>
<g><path style="opacity:0.714" fill="#6366af" d="M 1472.5,589.5 C 1474.2,592.939 1475.54,596.605 1476.5,600.5C 1474.01,597.374 1472.68,593.708 1472.5,589.5 Z"/></g>
<g><path style="opacity:1" fill="#6165af" d="M 1461.5,591.5 C 1463.65,593.617 1464.65,596.284 1464.5,599.5C 1463.13,597.064 1462.13,594.397 1461.5,591.5 Z"/></g>
<g><path style="opacity:1" fill="#979aca" d="M 1002.5,589.5 C 1003.47,591.948 1003.81,594.615 1003.5,597.5C 1006.17,597.5 1008.83,597.5 1011.5,597.5C 1011.5,599.833 1011.5,602.167 1011.5,604.5C 1008.83,604.5 1006.17,604.5 1003.5,604.5C 1005.61,603.532 1007.94,603.198 1010.5,603.5C 1010.5,601.833 1010.5,600.167 1010.5,598.5C 1007.83,598.5 1005.17,598.5 1002.5,598.5C 1002.5,595.5 1002.5,592.5 1002.5,589.5 Z"/></g>
<g><path style="opacity:1" fill="#666ab1" d="M 996.5,596.5 C 994.052,597.473 991.385,597.806 988.5,597.5C 988.5,599.5 988.5,601.5 988.5,603.5C 991.385,603.194 994.052,603.527 996.5,604.5C 993.5,604.5 990.5,604.5 987.5,604.5C 987.5,601.833 987.5,599.167 987.5,596.5C 990.5,596.5 993.5,596.5 996.5,596.5 Z"/></g>
<g><path style="opacity:1" fill="#a4a6d1" d="M 996.5,612.5 C 992.606,613.804 988.939,615.804 985.5,618.5C 987.893,614.304 991.56,612.304 996.5,612.5 Z"/></g>
<g><path style="opacity:1" fill="#aaabd3" d="M 1466.5,606.5 C 1468.99,611.069 1470.33,616.069 1470.5,621.5C 1468.01,616.931 1466.67,611.931 1466.5,606.5 Z"/></g>
<g><path style="opacity:1" fill="#111483" d="M 996.5,621.5 C 1007.98,622.462 1011.15,628.128 1006,638.5C 1001.33,642.5 996.667,642.5 992,638.5C 987.775,631.097 989.275,625.43 996.5,621.5 Z"/></g>
<g><path style="opacity:1" fill="#081081" d="M 899.5,642.5 C 908.998,641.173 913.498,645.173 913,654.5C 910.611,660.777 906.111,662.943 899.5,661C 892.86,654.76 892.86,648.593 899.5,642.5 Z"/></g>
<g><path style="opacity:1" fill="#060f81" d="M 1090.5,642.5 C 1100.04,641.869 1104.21,646.203 1103,655.5C 1100.37,660.732 1096.2,662.565 1090.5,661C 1085.58,658.259 1083.75,654.092 1085,648.5C 1086.36,645.977 1088.19,643.977 1090.5,642.5 Z"/></g>
<g><path style="opacity:0.522" fill="#3a3b98" d="M 1483.5,628.5 C 1485.99,635.178 1487.66,642.178 1488.5,649.5C 1487.27,648.848 1486.61,647.681 1486.5,646C 1485.42,640.166 1484.42,634.333 1483.5,628.5 Z"/></g>
<g><path style="opacity:1" fill="#6368b0" d="M 1477.5,649.5 C 1478.92,651.515 1479.59,653.848 1479.5,656.5C 1478.08,654.485 1477.41,652.152 1477.5,649.5 Z"/></g>
<g><path style="opacity:0.388" fill="#b0b3d7" d="M 506.5,665.5 C 504.606,676.592 502.939,687.592 501.5,698.5C 501.804,689.455 502.638,680.455 504,671.5C 504.24,669.148 505.073,667.148 506.5,665.5 Z"/></g>
<g><path style="opacity:1" fill="#a3a5d0" d="M 1472.5,672.5 C 1474.07,674.811 1474.9,677.478 1475,680.5C 1475.5,684.152 1475.67,687.818 1475.5,691.5C 1474.41,685.315 1473.41,678.981 1472.5,672.5 Z"/></g>
<g><path style="opacity:1" fill="#9a9dcc" d="M 515.5,678.5 C 515.771,683.434 515.104,688.1 513.5,692.5C 513.229,687.566 513.896,682.9 515.5,678.5 Z"/></g>
<g><path style="opacity:0.318" fill="#868ac2" d="M 1493.5,678.5 C 1495.14,682.21 1495.8,686.21 1495.5,690.5C 1494.38,686.705 1493.72,682.705 1493.5,678.5 Z"/></g>
<g><path style="opacity:0.761" fill="#6d71b5" d="M 1495.5,694.5 C 1496.88,699.944 1497.55,705.611 1497.5,711.5C 1495.99,706.071 1495.32,700.404 1495.5,694.5 Z"/></g>
<g><path style="opacity:1" fill="#f5f5fa" d="M 919.5,720.5 C 927.656,719.821 931.156,723.488 930,731.5C 924.67,738.311 919.67,737.977 915,730.5C 914.077,726.017 915.577,722.683 919.5,720.5 Z"/></g>
<g><path style="opacity:1" fill="#f4f4f9" d="M 957.5,720.5 C 966.778,719.376 970.278,723.376 968,732.5C 962.186,738.205 957.186,737.538 953,730.5C 952.438,726.232 953.938,722.898 957.5,720.5 Z"/></g>
<g><path style="opacity:1" fill="#f4f4f9" d="M 995.5,720.5 C 1004.86,719.608 1008.36,723.608 1006,732.5C 1001.33,737.833 996.667,737.833 992,732.5C 990.593,727.556 991.759,723.556 995.5,720.5 Z"/></g>
<g><path style="opacity:1" fill="#f4f4f9" d="M 1033.5,720.5 C 1042.89,719.675 1046.39,723.675 1044,732.5C 1039.33,737.833 1034.67,737.833 1030,732.5C 1028.59,727.599 1029.76,723.599 1033.5,720.5 Z"/></g>
<g><path style="opacity:1" fill="#f6f6fa" d="M 1071.5,720.5 C 1081.06,719.546 1084.56,723.546 1082,732.5C 1076.84,738.062 1072.17,737.729 1068,731.5C 1066.66,726.96 1067.83,723.293 1071.5,720.5 Z"/></g>
<g><path style="opacity:1" fill="#e6e7f2" d="M 915.5,745.5 C 915.5,749.5 915.5,753.5 915.5,757.5C 971.167,757.5 1026.83,757.5 1082.5,757.5C 1082.5,753.5 1082.5,749.5 1082.5,745.5C 1083.48,749.634 1083.82,753.968 1083.5,758.5C 1027.17,758.5 970.833,758.5 914.5,758.5C 914.182,753.968 914.515,749.634 915.5,745.5 Z"/></g>
<g><path style="opacity:1" fill="#fefffe" d="M 915.5,745.5 C 971.167,745.5 1026.83,745.5 1082.5,745.5C 1082.5,749.5 1082.5,753.5 1082.5,757.5C 1026.83,757.5 971.167,757.5 915.5,757.5C 915.5,753.5 915.5,749.5 915.5,745.5 Z"/></g>
<g><path style="opacity:0.565" fill="#c1c3df" d="M 1498.5,734.5 C 1499.66,748.327 1499.83,762.327 1499,776.5C 1498.79,778.058 1498.29,779.391 1497.5,780.5C 1498.42,765.191 1498.75,749.858 1498.5,734.5 Z"/></g>
<g><path style="opacity:0.435" fill="#b5b8da" d="M 499.5,720.5 C 499.298,742.846 499.631,765.179 500.5,787.5C 500.5,787.833 500.5,788.167 500.5,788.5C 498.946,775.706 498.28,762.706 498.5,749.5C 498.5,739.661 498.834,729.994 499.5,720.5 Z"/></g>
<g><path style="opacity:1" fill="#fefffe" d="M 688.5,787.5 C 705.5,787.5 722.5,787.5 739.5,787.5C 739.5,792.833 739.5,798.167 739.5,803.5C 734.5,803.5 729.5,803.5 724.5,803.5C 724.5,830.833 724.5,858.167 724.5,885.5C 717.5,885.5 710.5,885.5 703.5,885.5C 703.5,858.167 703.5,830.833 703.5,803.5C 698.5,803.5 693.5,803.5 688.5,803.5C 688.5,798.167 688.5,792.833 688.5,787.5 Z"/></g>
<g><path style="opacity:1" fill="#fcfcfd" d="M 911.5,787.5 C 911.333,800.837 911.5,814.171 912,827.5C 912.717,826.956 913.217,826.289 913.5,825.5C 918.029,813.084 922.863,800.751 928,788.5C 935.109,787.188 942.276,787.188 949.5,788.5C 943.544,802.742 937.877,817.075 932.5,831.5C 938.307,849.586 944.307,867.586 950.5,885.5C 943.137,885.831 935.803,885.497 928.5,884.5C 924.35,870.546 919.516,856.88 914,843.5C 912.519,857.342 912.019,871.342 912.5,885.5C 905.167,885.5 897.833,885.5 890.5,885.5C 890.5,852.833 890.5,820.167 890.5,787.5C 897.5,787.5 904.5,787.5 911.5,787.5 Z"/></g>
<g><path style="opacity:1" fill="#b6b9db" d="M 911.5,787.5 C 912.167,800.167 912.833,812.833 913.5,825.5C 913.217,826.289 912.717,826.956 912,827.5C 911.5,814.171 911.333,800.837 911.5,787.5 Z"/></g>
<g><path style="opacity:1" fill="#fcfcfd" d="M 1139.5,787.5 C 1146.17,787.5 1152.83,787.5 1159.5,787.5C 1159.5,820.167 1159.5,852.833 1159.5,885.5C 1152.83,885.5 1146.17,885.5 1139.5,885.5C 1139.66,883.801 1139.49,882.134 1139,880.5C 1133.64,886.061 1127.14,887.895 1119.5,886C 1114.45,883.28 1111.28,879.113 1110,873.5C 1109.33,858.5 1109.33,843.5 1110,828.5C 1112.73,817.047 1119.9,812.547 1131.5,815C 1134.25,816.123 1136.75,817.623 1139,819.5C 1139.5,808.839 1139.67,798.172 1139.5,787.5 Z"/></g>
<g><path style="opacity:1" fill="#7d82bd" d="M 975.5,803.5 C 975.5,799.167 975.5,794.833 975.5,790.5C 969.167,790.5 962.833,790.5 956.5,790.5C 956.5,794.833 956.5,799.167 956.5,803.5C 955.514,799.03 955.181,794.363 955.5,789.5C 962.5,789.5 969.5,789.5 976.5,789.5C 976.819,794.363 976.486,799.03 975.5,803.5 Z"/></g>
<g><path style="opacity:1" fill="#fefffe" d="M 975.5,803.5 C 969.167,803.5 962.833,803.5 956.5,803.5C 956.5,799.167 956.5,794.833 956.5,790.5C 962.833,790.5 969.167,790.5 975.5,790.5C 975.5,794.833 975.5,799.167 975.5,803.5 Z"/></g>
<g><path style="opacity:0.482" fill="#5d5fac" d="M 1497.5,787.5 C 1497.46,792.193 1497.13,796.859 1496.5,801.5C 1495.83,803.833 1495.17,806.167 1494.5,808.5C 1494.88,801.281 1495.88,794.281 1497.5,787.5 Z"/></g>
<g><path style="opacity:1" fill="#fafafc" d="M 1099.5,811.5 C 1100.5,811.5 1101.5,811.5 1102.5,811.5C 1103.06,814.462 1104.06,817.295 1105.5,820C 1102.02,821.908 1098.69,824.075 1095.5,826.5C 1097.04,830.14 1097.71,833.973 1097.5,838C 1098.86,850.633 1093.53,858.633 1081.5,862C 1074.55,862.346 1067.71,862.512 1061,862.5C 1060.14,864.749 1060.64,866.582 1062.5,868C 1073.63,869.347 1084.63,871.347 1095.5,874C 1102.04,879.755 1104.2,886.922 1102,895.5C 1099.12,903.703 1093.29,908.203 1084.5,909C 1076.5,909.667 1068.5,909.667 1060.5,909C 1049.23,906.78 1045.07,900.28 1048,889.5C 1050.28,886.432 1053.12,883.932 1056.5,882C 1044.9,874.396 1044.57,866.063 1055.5,857C 1046.78,845.536 1046.28,833.702 1054,821.5C 1062,814.869 1071.17,812.703 1081.5,815C 1084.78,815.973 1087.78,817.473 1090.5,819.5C 1092.97,816.121 1095.97,813.454 1099.5,811.5 Z"/></g>
<g><path style="opacity:0.38" fill="#5256a7" d="M 500.5,787.5 C 501.117,787.611 501.617,787.944 502,788.5C 502.911,800.532 504.078,812.532 505.5,824.5C 503.001,812.752 501.335,800.752 500.5,788.5C 500.5,788.167 500.5,787.833 500.5,787.5 Z"/></g>
<g><path style="opacity:1" fill="#6b6fb4" d="M 513.5,807.5 C 514.972,811.919 515.638,816.586 515.5,821.5C 514.028,817.081 513.362,812.414 513.5,807.5 Z"/></g>
<g><path style="opacity:1" fill="#fafafc" d="M 760.5,814.5 C 768.534,813.643 776.201,814.81 783.5,818C 788.636,821.483 791.803,826.316 793,832.5C 793.667,844.5 793.667,856.5 793,868.5C 791.13,878.37 785.297,884.203 775.5,886C 764.798,888.615 755.632,886.115 748,878.5C 746.275,875.326 744.942,871.993 744,868.5C 743.076,855.11 743.409,841.777 745,828.5C 747.869,821.124 753.036,816.457 760.5,814.5 Z"/></g>
<g><path style="opacity:1" fill="#fcfcfd" d="M 1019.5,814.5 C 1027.92,812.628 1033.76,815.628 1037,823.5C 1037.5,844.164 1037.67,864.831 1037.5,885.5C 1031.17,885.5 1024.83,885.5 1018.5,885.5C 1018.67,867.164 1018.5,848.83 1018,830.5C 1015.07,827.941 1012.07,827.941 1009,830.5C 1008.5,848.83 1008.33,867.164 1008.5,885.5C 1001.83,885.5 995.167,885.5 988.5,885.5C 988.5,862.167 988.5,838.833 988.5,815.5C 995.167,815.5 1001.83,815.5 1008.5,815.5C 1008.34,817.527 1008.5,819.527 1009,821.5C 1012.31,818.771 1015.81,816.438 1019.5,814.5 Z"/></g>
<g><path style="opacity:1" fill="#fbfbfd" d="M 1186.5,814.5 C 1195.36,813.402 1203.69,814.902 1211.5,819C 1215.26,822.421 1217.76,826.588 1219,831.5C 1219.93,845.223 1219.59,858.889 1218,872.5C 1215.43,879.401 1210.6,883.901 1203.5,886C 1196.42,886.884 1189.42,886.551 1182.5,885C 1176.51,882.341 1172.67,877.841 1171,871.5C 1170.33,857.5 1170.33,843.5 1171,829.5C 1173.5,821.679 1178.67,816.679 1186.5,814.5 Z"/></g>
<g><path style="opacity:1" fill="#fefefe" d="M 1259.5,814.5 C 1267.48,812.771 1273.81,815.104 1278.5,821.5C 1284.63,815.402 1291.97,813.235 1300.5,815C 1305.06,816.627 1307.9,819.794 1309,824.5C 1309.5,844.831 1309.67,865.164 1309.5,885.5C 1303.17,885.5 1296.83,885.5 1290.5,885.5C 1290.67,867.164 1290.5,848.83 1290,830.5C 1286.92,826.683 1283.59,826.683 1280,830.5C 1279.5,848.83 1279.33,867.164 1279.5,885.5C 1273.17,885.5 1266.83,885.5 1260.5,885.5C 1260.67,867.164 1260.5,848.83 1260,830.5C 1256.92,826.683 1253.59,826.683 1250,830.5C 1249.5,848.83 1249.33,867.164 1249.5,885.5C 1243.17,885.5 1236.83,885.5 1230.5,885.5C 1230.5,862.167 1230.5,838.833 1230.5,815.5C 1236.83,815.5 1243.17,815.5 1249.5,815.5C 1249.34,817.199 1249.51,818.866 1250,820.5C 1253.18,818.338 1256.35,816.338 1259.5,814.5 Z"/></g>
<g><path style="opacity:1" fill="#fbfbfd" d="M 824.5,851.5 C 825.167,856.833 825.833,856.833 826.5,851.5C 828.167,839.5 829.833,827.5 831.5,815.5C 837.833,815.5 844.167,815.5 850.5,815.5C 844.991,841.547 839.157,867.547 833,893.5C 829.361,901.402 823.194,905.402 814.5,905.5C 811.833,905.5 809.167,905.5 806.5,905.5C 806.5,901.167 806.5,896.833 806.5,892.5C 812.398,893.397 816.064,891.064 817.5,885.5C 811.174,862.185 804.841,838.852 798.5,815.5C 804.833,815.5 811.167,815.5 817.5,815.5C 819.404,827.59 821.737,839.59 824.5,851.5 Z"/></g>
<g><path style="opacity:1" fill="#f9f9fc" d="M 956.5,815.5 C 963.167,815.5 969.833,815.5 976.5,815.5C 976.5,838.833 976.5,862.167 976.5,885.5C 969.833,885.5 963.167,885.5 956.5,885.5C 956.5,862.167 956.5,838.833 956.5,815.5 Z"/></g>
<g><path style="opacity:0.376" fill="#b5b7d9" d="M 1496.5,801.5 C 1496.79,809.156 1495.79,816.49 1493.5,823.5C 1493.75,818.493 1494.08,813.493 1494.5,808.5C 1495.17,806.167 1495.83,803.833 1496.5,801.5 Z"/></g>
<g><path style="opacity:1" fill="#151684" d="M 1070.5,826.5 C 1074.49,825.616 1077.32,826.949 1079,830.5C 1079.98,836.983 1079.48,843.316 1077.5,849.5C 1072.56,852.882 1069.73,851.548 1069,845.5C 1067.97,838.959 1068.47,832.626 1070.5,826.5 Z"/></g>
<g><path style="opacity:1" fill="#060e81" d="M 1132.5,826.5 C 1134.86,826.674 1137.19,827.007 1139.5,827.5C 1139.67,842.504 1139.5,857.504 1139,872.5C 1135.11,875.611 1132.11,874.944 1130,870.5C 1129.33,856.833 1129.33,843.167 1130,829.5C 1131.04,828.627 1131.88,827.627 1132.5,826.5 Z"/></g>
<g><path style="opacity:1" fill="#080f81" d="M 766.5,827.5 C 769.325,827.081 771.491,828.081 773,830.5C 773.667,843.833 773.667,857.167 773,870.5C 771.334,873.379 768.834,874.212 765.5,873C 764.874,872.25 764.374,871.416 764,870.5C 763.333,857.167 763.333,843.833 764,830.5C 765.045,829.627 765.878,828.627 766.5,827.5 Z"/></g>
<g><path style="opacity:1" fill="#0a1182" d="M 1192.5,827.5 C 1195.55,826.855 1197.71,827.855 1199,830.5C 1199.67,843.833 1199.67,857.167 1199,870.5C 1197.69,873.306 1195.53,874.14 1192.5,873C 1191.11,871.829 1190.27,870.329 1190,868.5C 1189.33,856.167 1189.33,843.833 1190,831.5C 1190.66,830.016 1191.5,828.683 1192.5,827.5 Z"/></g>
<g><path style="opacity:0.267" fill="#a7a9d2" d="M 1490.5,840.5 C 1491.02,845.939 1490.02,850.939 1487.5,855.5C 1487.86,850.248 1488.86,845.248 1490.5,840.5 Z"/></g>
<g><path style="opacity:0.329" fill="#8c8fc4" d="M 508.5,843.5 C 509.709,847.618 510.376,851.951 510.5,856.5C 508.823,852.455 508.156,848.122 508.5,843.5 Z"/></g>
<g><path style="opacity:1" fill="#999acb" d="M 824.5,851.5 C 825.167,851.5 825.833,851.5 826.5,851.5C 825.833,856.833 825.167,856.833 824.5,851.5 Z"/></g>
<g><path style="opacity:0.616" fill="#8084bf" d="M 1485.5,865.5 C 1485.74,867.898 1485.07,869.898 1483.5,871.5C 1483.26,869.102 1483.93,867.102 1485.5,865.5 Z"/></g>
<g><path style="opacity:0.431" fill="#7b7ebc" d="M 512.5,864.5 C 515.035,868.355 516.035,872.688 515.5,877.5C 513.882,873.425 512.882,869.092 512.5,864.5 Z"/></g>
<g><path style="opacity:1" fill="#0d1282" d="M 1064.5,883.5 C 1071.57,883.839 1078.57,884.672 1085.5,886C 1088.31,887.305 1089.14,889.472 1088,892.5C 1086.83,893.893 1085.33,894.727 1083.5,895C 1077.83,895.667 1072.17,895.667 1066.5,895C 1060.52,892.282 1059.86,888.449 1064.5,883.5 Z"/></g>
<g><path style="opacity:0.686" fill="#9294c7" d="M 1480.5,882.5 C 1480.93,885.877 1480.27,888.877 1478.5,891.5C 1478.22,888.171 1478.88,885.171 1480.5,882.5 Z"/></g>
<g><path style="opacity:0.447" fill="#7377b8" d="M 1475.5,899.5 C 1475.28,903.162 1474.28,906.495 1472.5,909.5C 1472.72,905.838 1473.72,902.505 1475.5,899.5 Z"/></g>
<g><path style="opacity:1" fill="#9296c8" d="M 806.5,892.5 C 806.5,896.833 806.5,901.167 806.5,905.5C 809.167,905.5 811.833,905.5 814.5,905.5C 811.713,906.477 808.713,906.81 805.5,906.5C 805.181,901.637 805.514,896.97 806.5,892.5 Z"/></g>
<g><path style="opacity:0.435" fill="#8a8dc4" d="M 1465.5,928.5 C 1465.51,932.475 1464.18,935.808 1461.5,938.5C 1462.27,934.851 1463.6,931.518 1465.5,928.5 Z"/></g>
<g><path style="opacity:0.666" fill="#312e92" d="M 539.5,944.5 C 541.371,944.859 542.871,945.859 544,947.5C 544.559,951.186 545.226,954.853 546,958.5C 547.512,959.257 548.846,960.257 550,961.5C 550.339,964.88 550.839,968.213 551.5,971.5C 546.366,963.134 542.366,954.134 539.5,944.5 Z"/></g>
<g><path style="opacity:0.294" fill="#a0a2cf" d="M 551.5,971.5 C 553.814,976.128 556.147,980.795 558.5,985.5C 554.647,981.794 552.313,977.127 551.5,971.5 Z"/></g>
<g><path style="opacity:0.392" fill="#9c9ecd" d="M 1396.5,1052.5 C 1395.66,1054.85 1394.33,1056.85 1392.5,1058.5C 1392.84,1055.8 1394.18,1053.8 1396.5,1052.5 Z"/></g>
<g><path style="opacity:0.494" fill="#9093c7" d="M 618.5,1073.5 C 620.587,1074.58 621.92,1076.25 622.5,1078.5C 620.413,1077.42 619.08,1075.75 618.5,1073.5 Z"/></g>
<g><path style="opacity:0.443" fill="#9ea1ce" d="M 632.5,1089.5 C 638.167,1094.5 643.5,1099.83 648.5,1105.5C 642.167,1101.17 636.833,1095.83 632.5,1089.5 Z"/></g>
<g><path style="opacity:0.384" fill="#999ccb" d="M 1354.5,1101.5 C 1353.42,1103.59 1351.75,1104.92 1349.5,1105.5C 1350.58,1103.41 1352.25,1102.08 1354.5,1101.5 Z"/></g>
<g><path style="opacity:0.49" fill="#8a8dc4" d="M 1343.5,1111.5 C 1342.58,1113.82 1340.91,1115.48 1338.5,1116.5C 1339.42,1114.18 1341.09,1112.52 1343.5,1111.5 Z"/></g>
<g><path style="opacity:0.443" fill="#afb1d6" d="M 1290.5,1155.5 C 1287.73,1159.39 1284.06,1162.05 1279.5,1163.5C 1282.98,1160.59 1286.65,1157.92 1290.5,1155.5 Z"/></g>
<g><path style="opacity:0.506" fill="#9597c9" d="M 1248.5,1182.5 C 1247.51,1184.41 1245.85,1185.41 1243.5,1185.5C 1244.66,1183.75 1246.33,1182.75 1248.5,1182.5 Z"/></g>
<g><path style="opacity:0.506" fill="#8a8dc3" d="M 1220.5,1197.5 C 1218.39,1199.77 1215.72,1201.1 1212.5,1201.5C 1214.61,1199.23 1217.28,1197.9 1220.5,1197.5 Z"/></g>
<g><path style="opacity:0.996" fill="#6a6db3" d="M 815.5,1202.5 C 818.157,1202.93 820.491,1203.93 822.5,1205.5C 819.509,1205.83 817.176,1204.83 815.5,1202.5 Z"/></g>
<g><path style="opacity:0.384" fill="#9698c9" d="M 1198.5,1207.5 C 1195.76,1210.2 1192.43,1211.87 1188.5,1212.5C 1191.24,1209.8 1194.57,1208.13 1198.5,1207.5 Z"/></g>
<g><path style="opacity:0.392" fill="#8487c1" d="M 1185.5,1213.5 C 1182.46,1215.35 1179.13,1216.68 1175.5,1217.5C 1178.19,1214.82 1181.53,1213.49 1185.5,1213.5 Z"/></g>
<g><path style="opacity:0.478" fill="#7175b7" d="M 845.5,1224.5 C 847.967,1224.75 849.967,1225.75 851.5,1227.5C 849.033,1227.25 847.033,1226.25 845.5,1224.5 Z"/></g>
<g><path style="opacity:0.443" fill="#8d90c5" d="M 1156.5,1223.5 C 1153.34,1226 1149.67,1227.33 1145.5,1227.5C 1148.8,1225.4 1152.46,1224.07 1156.5,1223.5 Z"/></g>
<g><path style="opacity:0.58" fill="#7578b9" d="M 860.5,1229.5 C 864.084,1229.98 867.417,1230.98 870.5,1232.5C 866.714,1232.68 863.381,1231.68 860.5,1229.5 Z"/></g>
<g><path style="opacity:1" fill="#aeb0d6" d="M 913.5,1230.5 C 917.535,1230.39 921.535,1230.73 925.5,1231.5C 927.03,1231.64 928.03,1232.31 928.5,1233.5C 923.304,1232.86 918.304,1231.86 913.5,1230.5 Z"/></g>
<g><path style="opacity:0.443" fill="#a8a9d3" d="M 1139.5,1229.5 C 1136.55,1231.41 1133.21,1232.41 1129.5,1232.5C 1129.97,1231.31 1130.97,1230.64 1132.5,1230.5C 1134.82,1230 1137.15,1229.67 1139.5,1229.5 Z"/></g>
<g><path style="opacity:0.267" fill="#aeb0d6" d="M 874.5,1233.5 C 879.38,1234.47 884.047,1235.8 888.5,1237.5C 884.116,1236.99 879.782,1236.16 875.5,1235C 874.944,1234.62 874.611,1234.12 874.5,1233.5 Z"/></g>
<g><path style="opacity:1" fill="#4f53a5" d="M 932.5,1233.5 C 939.633,1234.44 946.633,1235.44 953.5,1236.5C 946.803,1236.45 940.136,1235.95 933.5,1235C 932.944,1234.62 932.611,1234.12 932.5,1233.5 Z"/></g>
<g><path style="opacity:0.49" fill="#9497c9" d="M 1120.5,1234.5 C 1116.52,1236.45 1112.19,1237.45 1107.5,1237.5C 1107.92,1236.78 1108.58,1236.28 1109.5,1236C 1113.17,1235.45 1116.84,1234.95 1120.5,1234.5 Z"/></g>
<g><path style="opacity:0.365" fill="#8083be" d="M 907.5,1240.5 C 912.45,1240.77 917.117,1241.77 921.5,1243.5C 917.491,1243.14 913.491,1242.64 909.5,1242C 908.584,1241.72 907.918,1241.22 907.5,1240.5 Z"/></g>
<g><path style="opacity:0.427" fill="#7276b7" d="M 940.5,1245.5 C 949.712,1245.86 958.712,1246.86 967.5,1248.5C 958.25,1248.48 949.25,1247.48 940.5,1245.5 Z"/></g>
<g><path style="opacity:0.384" fill="#a2a5d0" d="M 1065.5,1244.5 C 1062.85,1246.11 1059.85,1246.94 1056.5,1247C 1052.18,1247.5 1047.85,1247.67 1043.5,1247.5C 1050.68,1246.35 1058.01,1245.35 1065.5,1244.5 Z"/></g>
</svg>
